# xmcd
#
# Track frame offsets: 
#        150
#        13410
#        27051
#        39592
#        51891
#        63548
#        75064
#        89933
#        105959
#        118295
#        132596
#        145031
#        160429
#        174311
#        190122
#        203605
#        218053
#        231004
#        245471
#        260114
#        274703
#        286604
#
# Disc length: 3979 seconds
#
# Revision: 0
# Processed by: cddbd v1.5.2PL0 Copyright (c) Steve Scherf et al.
# Submitted via: ExactAudioCopyFreeDBPlugin 1.0
#
DISCID=380f8916
DTITLE=Dunham Jazz-Jubilee Singers - Complete Recorded Works (1927-193
DTITLE=1)
DYEAR=1996
DGENRE=Gospel
TTITLE0=Dunham Jazz Singers - Honey Turn Your Damper Down -- A "Mama" 
TTITLE0=Blues
TTITLE1=Dunham Jazz Singers - You Can Hear Those Darkies Singing
TTITLE2=Dunham Jubilee Singers - Holy Is My Name
TTITLE3=Dunham Jubilee Singers - You Can Tell the World
TTITLE4=Dunham Jubilee Singers - Calvary
TTITLE5=Dunham Jubilee Singers - Do What the Lord Say Do
TTITLE6=Dunham Jubilee Singers - My Mama's Baby Child
TTITLE7=Dunham Jubilee Singers - Louisiana Babe
TTITLE8=Dunham Jubilee Singers - I Dreamed of the Judgement Morning
TTITLE9=Dunham Jubilee Singers - Will He Welcome Me There
TTITLE10=Dunham Jubilee Singers - Get on Board
TTITLE11=Dunham Jubilee Singers - The Old Account Was Settled Long Ago
TTITLE12=Dunham Jubilee Singers - Angel Child
TTITLE13=Dunham Jubilee Singers - See How They Did My Lord
TTITLE14=Dunham Jubilee Singers - Light of the World
TTITLE15=Dunham Jubilee Singers - Who Stole the Lock
TTITLE16=Dunham Jubilee Singers - Ephram Got the Coon
TTITLE17=Dunham Jubilee Singers - When the Moon Vanishes Away
TTITLE18=Dunham Jubilee Singers - If Men Go to Hell, Who Cares?
TTITLE19=Dunham Jubilee Singers - See My Friends Again
TTITLE20=Dixie Quartette - His Troubles Was Hard
TTITLE21=Dixie Quartette - Jerusalem Mornin'
EXTD=
EXTT0=
EXTT1=
EXTT2=
EXTT3=
EXTT4=
EXTT5=
EXTT6=
EXTT7=
EXTT8=
EXTT9=
EXTT10=
EXTT11=
EXTT12=
EXTT13=
EXTT14=
EXTT15=
EXTT16=
EXTT17=
EXTT18=
EXTT19=
EXTT20=
EXTT21=
PLAYORDER=
